<?xml version="1.0" encoding="utf-8"?>
<!-- Generator: Adobe Illustrator 26.5.0, SVG Export Plug-In . SVG Version: 6.00 Build 0)  -->
<svg version="1.1" id="레이어_1" xmlns="http://www.w3.org/2000/svg" xmlns:xlink="http://www.w3.org/1999/xlink" x="0px"
	 y="0px" viewBox="0 0 328.48 65.68" style="enable-background:new 0 0 328.48 65.68;" xml:space="preserve">
<style type="text/css">
	.st0{fill:#FFFFFF;}
	.st1{fill:#8C8C8C;}
	.st2{fill:#EB4C4C;}
	.st3{opacity:0.2;}
</style>
<path class="st0" d="M316.89,36.97l-6.82-1.4c-3.61-0.74-4.95-2.07-4.91-3.79c-0.04-2.32,2.53-3.9,5.9-3.94
	c3.47,0.04,5.79,1.76,6.25,4.43h9.76c-0.56-7.23-6.53-11.8-16.15-11.8c-4.31,0-7.95,0.88-10.66,2.48c-3.47,2.06-5.44,5.29-5.42,9.39
	c-0.03,3.97,1.8,6.99,5.42,8.93c1.53,0.83,3.37,1.45,5.53,1.88l6.32,1.27c3.58,0.73,5.2,1.96,5.2,3.93c0,2.46-2.53,3.97-6.32,4
	c-3.83-0.03-6.25-1.58-6.74-4.56h-10.47c0.51,4.28,2.72,7.62,6.48,9.69c2.76,1.53,6.37,2.37,10.73,2.39
	c10.15-0.04,16.89-5.06,16.92-12.57C327.88,41.82,324.3,38.52,316.89,36.97z"/>
<path class="st1" d="M300.26,22.95v18.32c-3.62-1.94-5.45-4.96-5.42-8.93C294.82,28.24,296.79,25.01,300.26,22.95z"/>
<path class="st1" d="M293.78,47.79h6.48v9.69C296.5,55.41,294.29,52.07,293.78,47.79z"/>
<path class="st0" d="M299.01,39.78c0-12.99-7.9-19.31-17.91-19.31c-4.38,0-8.17,1.23-11.14,3.44c-4.6,3.4-7.28,9.15-7.26,16.29
	c-0.02,7.31,2.6,12.96,7.26,16.29c3.04,2.18,6.94,3.36,11.56,3.38c9.41-0.04,15.74-4.6,17.21-11.66h-9.9
	c-1.02,2.28-3.55,3.83-7.09,3.86c-5.38-0.03-8.78-3.58-8.78-9.34h26.05V39.78z M272.96,36.2c0.21-4.39,3.58-7.97,8.35-7.93
	c4.64-0.04,7.83,3.3,7.87,7.93H272.96z"/>
<path class="st1" d="M269.96,23.91v32.58c-4.66-3.33-7.28-8.98-7.26-16.29C262.68,33.06,265.36,27.31,269.96,23.91z"/>
<path class="st0" d="M255.78,20.96v38.13h10.39V20.96H255.78z"/>
<rect x="255.78" y="20.96" class="st1" width="3.26" height="38.13"/>
<path class="st0" d="M249.7,20.96l-8,27.39h-0.43l-8-27.39h-10.96l8.32,23.76l5.03,14.37h11.65l13.42-38.13H249.7z"/>
<polygon class="st1" points="230.63,20.96 230.63,44.72 222.31,20.96 "/>
<path class="st0" d="M212.09,51.58c-5.05,0-8.29-4.21-8.29-11.59c0-7.23,3.31-11.41,8.29-11.44c3.93,0.03,6.39,2.63,7.02,6.39h9.77
	c-0.43-8.75-7.1-14.47-16.93-14.47c-4.03,0-7.53,0.98-10.37,2.74c-5.29,3.28-8.31,9.3-8.31,16.85v0.14c0,7.57,2.99,13.62,8.31,16.92
	c2.83,1.76,6.32,2.74,10.37,2.75c10.11-0.04,16.47-5.97,16.93-14.61h-9.77C218.45,49.3,215.74,51.58,212.09,51.58z"/>
<path class="st1" d="M201.58,23.21v33.91c-5.32-3.3-8.31-9.35-8.31-16.92v-0.14C193.27,32.51,196.29,26.49,201.58,23.21z"/>
<path class="st0" d="M186.35,20.96v21.91c0,5.2-3.58,7.9-7.37,7.94c-4.08-0.04-6.68-2.85-6.68-7.38V20.96h-10.39v24.3
	c0,2.68,0.47,5.05,1.35,7.04c0.73,1.69,1.75,3.11,2.99,4.23c0.32,0.29,0.65,0.55,1,0.8c2.04,1.48,4.6,2.26,7.51,2.26
	c5.76,0,9.87-2.95,11.59-7.38h0.42v6.88h9.97V20.96H186.35z"/>
<path class="st1" d="M167.25,20.96v36.37c-0.35-0.25-0.68-0.51-1-0.8c-1.24-1.12-2.26-2.54-2.99-4.23c-0.43-1.6-0.66-3.37-0.66-5.29
	V20.96H167.25z"/>
<g>
	<g>
		<path class="st0" d="M88.94,22.39L69.97,41.37L48.29,63.04l-1.92,1.92c-0.96,0.96-2.51,0.96-3.48,0L24.7,46.77
			c-0.96-0.96-0.96-2.52,0-3.48l1.92-1.92L48.3,19.7L67.28,0.72c0.96-0.96,2.51-0.96,3.48,0l18.19,18.19
			C89.91,19.88,89.91,21.43,88.94,22.39z"/>
		<path class="st2" d="M33.09,45.74l-1.3,1.3c-0.39,0.39-1.02,0.39-1.41,0l-1.3-1.3c-0.39-0.39-0.39-1.02,0-1.41l1.3-1.3
			c0.39-0.39,1.02-0.39,1.41,0l1.3,1.3C33.48,44.72,33.48,45.35,33.09,45.74z"/>
		<path class="st2" d="M38.51,40.32l-1.3,1.3c-0.39,0.39-1.02,0.39-1.41,0l-1.3-1.3c-0.39-0.39-0.39-1.02,0-1.41l1.3-1.3
			c0.39-0.39,1.02-0.39,1.41,0l1.3,1.3C38.9,39.3,38.9,39.93,38.51,40.32z"/>
		<path class="st2" d="M43.93,34.9l-1.3,1.3c-0.39,0.39-1.02,0.39-1.41,0l-1.3-1.3c-0.39-0.39-0.39-1.02,0-1.41l1.3-1.3
			c0.39-0.39,1.02-0.39,1.41,0l1.3,1.3C44.32,33.88,44.32,34.51,43.93,34.9z"/>
		<path class="st2" d="M54.76,24.07l-1.3,1.3c-0.39,0.39-1.02,0.39-1.41,0l-1.3-1.3c-0.39-0.39-0.39-1.02,0-1.41l1.3-1.3
			c0.39-0.39,1.02-0.39,1.41,0l1.3,1.3C55.15,23.05,55.15,23.68,54.76,24.07z"/>
		<path class="st2" d="M60.18,18.65l-1.3,1.3c-0.39,0.39-1.02,0.39-1.41,0l-1.3-1.3c-0.39-0.39-0.39-1.02,0-1.41l1.3-1.3
			c0.39-0.39,1.02-0.39,1.41,0l1.3,1.3C60.57,17.63,60.57,18.26,60.18,18.65z"/>
		<path class="st2" d="M65.6,13.23l-1.3,1.3c-0.39,0.39-1.02,0.39-1.41,0l-1.3-1.3c-0.39-0.39-0.39-1.02,0-1.41l1.3-1.3
			c0.39-0.39,1.02-0.39,1.41,0l1.3,1.3C65.99,12.21,65.99,12.84,65.6,13.23z"/>
		<path class="st2" d="M71.02,7.81l-1.3,1.3c-0.39,0.39-1.02,0.39-1.41,0l-1.3-1.3c-0.39-0.39-0.39-1.02,0-1.41l1.3-1.3
			c0.39-0.39,1.02-0.39,1.41,0l1.3,1.3C71.41,6.79,71.41,7.42,71.02,7.81z"/>
		<path class="st2" d="M46.64,59.28l-1.3,1.3c-0.39,0.39-1.02,0.39-1.41,0l-1.3-1.3c-0.39-0.39-0.39-1.02,0-1.41l1.3-1.3
			c0.39-0.39,1.02-0.39,1.41,0l1.3,1.3C47.03,58.26,47.03,58.89,46.64,59.28z"/>
		<path class="st2" d="M52.06,53.86l-1.3,1.3c-0.39,0.39-1.02,0.39-1.41,0l-1.3-1.3c-0.39-0.39-0.39-1.02,0-1.41l1.3-1.3
			c0.39-0.39,1.02-0.39,1.41,0l1.3,1.3C52.44,52.84,52.44,53.47,52.06,53.86z"/>
		<path class="st2" d="M57.47,48.44l-1.3,1.3c-0.39,0.39-1.02,0.39-1.41,0l-1.3-1.3c-0.39-0.39-0.39-1.02,0-1.41l1.3-1.3
			c0.39-0.39,1.02-0.39,1.41,0l1.3,1.3C57.86,47.43,57.86,48.06,57.47,48.44z"/>
		<path class="st2" d="M68.31,37.61l-1.3,1.3c-0.39,0.39-1.02,0.39-1.41,0l-1.3-1.3c-0.39-0.39-0.39-1.02,0-1.41l1.3-1.3
			c0.39-0.39,1.02-0.39,1.41,0l1.3,1.3C68.7,36.59,68.7,37.22,68.31,37.61z"/>
		<path class="st2" d="M73.73,32.19l-1.3,1.3c-0.39,0.39-1.02,0.39-1.41,0l-1.3-1.3c-0.39-0.39-0.39-1.02,0-1.41l1.3-1.3
			c0.39-0.39,1.02-0.39,1.41,0l1.3,1.3C74.11,31.17,74.11,31.8,73.73,32.19z"/>
		<path class="st2" d="M79.14,26.77l-1.3,1.3c-0.39,0.39-1.02,0.39-1.41,0l-1.3-1.3c-0.39-0.39-0.39-1.02,0-1.41l1.3-1.3
			c0.39-0.39,1.02-0.39,1.41,0l1.3,1.3C79.53,25.76,79.53,26.39,79.14,26.77z"/>
		<path class="st2" d="M84.56,21.36l-1.3,1.3c-0.39,0.39-1.02,0.39-1.41,0l-1.3-1.3c-0.39-0.39-0.39-1.02,0-1.41l1.3-1.3
			c0.39-0.39,1.02-0.39,1.41,0l1.3,1.3C84.95,20.34,84.95,20.97,84.56,21.36z"/>
		
			<rect x="32.97" y="26.05" transform="matrix(0.7071 -0.7071 0.7071 0.7071 -15.1095 46.2697)" class="st3" width="30.65" height="30.64"/>
	</g>
	<g>
		<path class="st0" d="M42.33,64.48L1.95,24.1c-1.57-1.57-1.57-4.1,0-5.67l16-16c1.57-1.57,4.1-1.57,5.67,0L64,42.81
			c1.57,1.57,1.57,4.1,0,5.67l-16,16C46.44,66.05,43.9,66.05,42.33,64.48z"/>
		<path class="st2" d="M20.08,9.73l-1.3-1.3c-0.39-0.39-0.39-1.02,0-1.41l1.3-1.3c0.39-0.39,1.02-0.39,1.41,0l1.3,1.3
			c0.39,0.39,0.39,1.02,0,1.41l-1.3,1.3C21.1,10.12,20.47,10.12,20.08,9.73z"/>
		<path class="st2" d="M25.5,15.15l-1.3-1.3c-0.39-0.39-0.39-1.02,0-1.41l1.3-1.3c0.39-0.39,1.02-0.39,1.41,0l1.3,1.3
			c0.39,0.39,0.39,1.02,0,1.41l-1.3,1.3C26.52,15.53,25.89,15.53,25.5,15.15z"/>
		<path class="st2" d="M30.92,20.56l-1.3-1.3c-0.39-0.39-0.39-1.02,0-1.41l1.3-1.3c0.39-0.39,1.02-0.39,1.41,0l1.3,1.3
			c0.39,0.39,0.39,1.02,0,1.41l-1.3,1.3C31.94,20.95,31.31,20.95,30.92,20.56z"/>
		<path class="st2" d="M36.34,25.98l-1.3-1.3c-0.39-0.39-0.39-1.02,0-1.41l1.3-1.3c0.39-0.39,1.02-0.39,1.41,0l1.3,1.3
			c0.39,0.39,0.39,1.02,0,1.41l-1.3,1.3C37.35,26.37,36.72,26.37,36.34,25.98z"/>
		<path class="st2" d="M41.75,31.4l-1.3-1.3c-0.39-0.39-0.39-1.02,0-1.41l1.3-1.3c0.39-0.39,1.02-0.39,1.41,0l1.3,1.3
			c0.39,0.39,0.39,1.02,0,1.41l-1.3,1.3C42.77,31.79,42.14,31.79,41.75,31.4z"/>
		<path class="st2" d="M47.17,36.82l-1.3-1.3c-0.39-0.39-0.39-1.02,0-1.41l1.3-1.3c0.39-0.39,1.02-0.39,1.41,0l1.3,1.3
			c0.39,0.39,0.39,1.02,0,1.41l-1.3,1.3C48.19,37.2,47.56,37.2,47.17,36.82z"/>
		<path class="st2" d="M52.59,42.23l-1.3-1.3c-0.39-0.39-0.39-1.02,0-1.41l1.3-1.3c0.39-0.39,1.02-0.39,1.41,0l1.3,1.3
			c0.39,0.39,0.39,1.02,0,1.41l-1.3,1.3C53.61,42.62,52.98,42.62,52.59,42.23z"/>
		<path class="st2" d="M58.01,47.65l-1.3-1.3c-0.39-0.39-0.39-1.02,0-1.41l1.3-1.3c0.39-0.39,1.02-0.39,1.41,0l1.3,1.3
			c0.39,0.39,0.39,1.02,0,1.41l-1.3,1.3C59.02,48.04,58.39,48.04,58.01,47.65z"/>
		<path class="st2" d="M6.54,23.27l-1.3-1.3c-0.39-0.39-0.39-1.02,0-1.41l1.3-1.3c0.39-0.39,1.02-0.39,1.41,0l1.3,1.3
			c0.39,0.39,0.39,1.02,0,1.41l-1.3,1.3C7.56,23.66,6.93,23.66,6.54,23.27z"/>
		<path class="st2" d="M11.96,28.69l-1.3-1.3c-0.39-0.39-0.39-1.02,0-1.41l1.3-1.3c0.39-0.39,1.02-0.39,1.41,0l1.3,1.3
			c0.39,0.39,0.39,1.02,0,1.41l-1.3,1.3C12.98,29.08,12.35,29.08,11.96,28.69z"/>
		<path class="st2" d="M17.37,34.11l-1.3-1.3c-0.39-0.39-0.39-1.02,0-1.41l1.3-1.3c0.39-0.39,1.02-0.39,1.41,0l1.3,1.3
			c0.39,0.39,0.39,1.02,0,1.41l-1.3,1.3C18.39,34.5,17.76,34.5,17.37,34.11z"/>
		<path class="st2" d="M22.79,39.52l-1.3-1.3c-0.39-0.39-0.39-1.02,0-1.41l1.3-1.3c0.39-0.39,1.02-0.39,1.41,0l1.3,1.3
			c0.39,0.39,0.39,1.02,0,1.41l-1.3,1.3C23.81,39.91,23.18,39.91,22.79,39.52z"/>
		<path class="st2" d="M28.21,44.94l-1.3-1.3c-0.39-0.39-0.39-1.02,0-1.41l1.3-1.3c0.39-0.39,1.02-0.39,1.41,0l1.3,1.3
			c0.39,0.39,0.39,1.02,0,1.41l-1.3,1.3C29.23,45.33,28.6,45.33,28.21,44.94z"/>
		<path class="st2" d="M33.63,50.36l-1.3-1.3c-0.39-0.39-0.39-1.02,0-1.41l1.3-1.3c0.39-0.39,1.02-0.39,1.41,0l1.3,1.3
			c0.39,0.39,0.39,1.02,0,1.41l-1.3,1.3C34.65,50.75,34.02,50.75,33.63,50.36z"/>
		<path class="st2" d="M39.04,55.78l-1.3-1.3c-0.39-0.39-0.39-1.02,0-1.41l1.3-1.3c0.39-0.39,1.02-0.39,1.41,0l1.3,1.3
			c0.39,0.39,0.39,1.02,0,1.41l-1.3,1.3C40.06,56.17,39.43,56.17,39.04,55.78z"/>
		<path class="st2" d="M44.46,61.19l-1.3-1.3c-0.39-0.39-0.39-1.02,0-1.41l1.3-1.3c0.39-0.39,1.02-0.39,1.41,0l1.3,1.3
			c0.39,0.39,0.39,1.02,0,1.41l-1.3,1.3C45.48,61.58,44.85,61.58,44.46,61.19z"/>
	</g>
</g>
<rect x="279.67" y="297.44" class="st0" width="16.18" height="57.52"/>
<rect x="351.94" y="297.44" class="st0" width="16.18" height="57.52"/>
<rect x="315.81" y="297.44" class="st0" width="16.18" height="57.52"/>
<rect x="315.81" y="261.3" transform="matrix(-1.836970e-16 1 -1 -1.836970e-16 629.4268 -18.3702)" class="st0" width="16.18" height="88.46"/>
<rect x="384.42" y="297.44" transform="matrix(-1 -1.224647e-16 1.224647e-16 -1 785.022 652.3962)" class="st0" width="16.18" height="57.52"/>
<rect x="420.56" y="297.44" transform="matrix(-1 -1.224647e-16 1.224647e-16 -1 857.2978 652.3962)" class="st0" width="16.18" height="57.52"/>
<rect x="402.49" y="320.71" transform="matrix(6.123234e-17 -1 1 6.123234e-17 63.7121 757.4479)" class="st0" width="16.18" height="52.32"/>
<rect x="473.59" y="276.7" transform="matrix(6.123234e-17 -1 1 6.123234e-17 176.2269 787.1451)" class="st0" width="16.18" height="57.52"/>
<rect x="473.59" y="318.11" transform="matrix(6.123234e-17 -1 1 6.123234e-17 134.8181 828.5539)" class="st0" width="16.18" height="57.52"/>
<rect x="452.92" y="297.44" class="st0" width="16.18" height="57.52"/>
<path class="st0" d="M150.5,8.25l-14.12,34.48h-0.56L121.7,8.25h-13.06v50.84h10.25V25.67h0.43l13.27,33.21h7.02l13.27-33.07h0.43
	v33.28h10.25V8.25H150.5z"/>
</svg>
